<svg preserveAspectRatio="xMidYMid meet" overflow="visible" style="display: block;" viewBox="0 0 902.325 1084.89" fill="none" xmlns="http://www.w3.org/2000/svg">
<path id="Arrow 2" d="M73.6623 468.784C32.9797 468.784 0 501.764 0 542.446C0 583.129 32.9797 616.109 73.6623 616.109V542.446V468.784ZM880.749 594.534C909.516 565.767 909.516 519.126 880.749 490.359L411.965 21.5752C383.198 -7.19171 336.558 -7.19171 307.791 21.5752C279.024 50.3421 279.024 96.9825 307.791 125.749L724.488 542.446L307.791 959.143C279.024 987.91 279.024 1034.55 307.791 1063.32C336.558 1092.08 383.198 1092.08 411.965 1063.32L880.749 594.534ZM73.6623 542.446V616.109H828.662V542.446V468.784H73.6623V542.446Z" fill="var(--stroke-0, black)"/>
</svg>
