<svg preserveAspectRatio="none" width="100%" height="100%" overflow="visible" style="display: block;" viewBox="0 0 150 150" fill="none" xmlns="http://www.w3.org/2000/svg">
<g id="Group">
<path id="Vector" d="M75.0002 0C54.6313 0 52.0771 0.0864112 44.0775 0.451258C36.0946 0.815436 30.6427 2.08347 25.872 3.93718C20.9401 5.85385 16.7575 8.4185 12.5881 12.5879C8.4185 16.7573 5.85386 20.9403 3.9374 25.8722C2.08325 30.6427 0.815659 36.0946 0.451035 44.0775C0.0861879 52.0771 0 54.6313 0 75.0002C0 95.3687 0.0861879 97.9228 0.451035 105.922C0.815659 113.905 2.08325 119.357 3.9374 124.128C5.85408 129.06 8.41873 133.242 12.5881 137.412C16.7577 141.581 20.9401 144.146 25.872 146.063C30.6427 147.917 36.0946 149.184 44.0775 149.549C52.0771 149.914 54.6313 150 75.0002 150C95.3687 150 97.9228 149.914 105.922 149.549C113.905 149.185 119.357 147.917 124.128 146.063C129.06 144.146 133.242 141.581 137.412 137.412C141.581 133.242 144.146 129.06 146.063 124.128C147.917 119.357 149.185 113.905 149.549 105.922C149.914 97.9228 150 95.3687 150 75.0002C150 54.6313 149.914 52.0771 149.549 44.0775C149.185 36.0946 147.917 30.6427 146.063 25.8722C144.146 20.9403 141.581 16.7573 137.412 12.5879C133.242 8.4185 129.06 5.85385 124.128 3.93718C119.357 2.08347 113.905 0.815436 105.922 0.451258C97.9228 0.0864112 95.3687 0 75.0002 0ZM75.0002 13.5134C95.0257 13.5134 97.3979 13.59 105.306 13.9508C112.619 14.2842 116.59 15.506 119.233 16.5331C122.734 17.8938 125.232 19.5189 127.856 22.1434C130.481 24.7679 132.106 27.2664 133.467 30.7671C134.494 33.4099 135.716 37.3812 136.049 44.6936C136.41 52.6021 136.487 54.9743 136.487 75C136.487 95.0257 136.41 97.3979 136.049 105.306C135.716 112.619 134.494 116.59 133.467 119.233C132.106 122.734 130.481 125.232 127.856 127.856C125.232 130.481 122.734 132.106 119.233 133.467C116.59 134.494 112.619 135.716 105.306 136.049C97.3992 136.41 95.0273 136.487 75 136.487C54.9727 136.487 52.6012 136.41 44.6936 136.049C37.381 135.716 33.4099 134.494 30.7673 133.467C27.2662 132.106 24.7679 130.481 22.1436 127.856C19.5191 125.232 17.8938 122.734 16.5331 119.233C15.506 116.59 14.2844 112.619 13.9508 105.306C13.59 97.3979 13.5134 95.0257 13.5134 75C13.5134 54.9743 13.59 52.6021 13.9508 44.6936C14.2844 37.381 15.506 33.4099 16.5331 30.7673C17.8938 27.2662 19.5191 24.7679 22.1434 22.1436C24.7679 19.5189 27.2664 17.8938 30.7671 16.5331C33.4099 15.506 37.3812 14.2842 44.6936 13.9508C52.6021 13.59 54.9743 13.5134 75 13.5134" fill="var(--fill-0, #100F0D)"/>
<path id="Vector_2" d="M75.0002 100C61.1927 100 49.9999 88.8072 49.9999 75.0002C49.9999 61.1927 61.1927 49.9999 75.0002 49.9999C88.8072 49.9999 100 61.1927 100 75.0002C100 88.8072 88.8072 100 75.0002 100ZM75.0002 36.4865C53.7294 36.4865 36.4865 53.7294 36.4865 75.0002C36.4865 96.2705 53.7294 113.513 75.0002 113.513C96.2705 113.513 113.513 96.2705 113.513 75.0002C113.513 53.7294 96.2705 36.4865 75.0002 36.4865V36.4865ZM124.035 34.9648C124.035 39.9356 120.006 43.9647 115.035 43.9647C110.065 43.9647 106.035 39.9356 106.035 34.9648C106.035 29.9943 110.065 25.9646 115.035 25.9646C120.006 25.9646 124.035 29.9943 124.035 34.9648" fill="var(--fill-0, #100F0D)"/>
</g>
</svg>
