<svg preserveAspectRatio="none" width="100%" height="100%" overflow="visible" style="display: block;" viewBox="0 0 130.5 130.5" fill="none" xmlns="http://www.w3.org/2000/svg">
<path id="Vector" d="M120.867 0H9.63344C7.07849 0 4.62819 1.01495 2.82157 2.82157C1.01495 4.62819 0 7.07849 0 9.63344V120.867C0 123.422 1.01495 125.872 2.82157 127.678C4.62819 129.485 7.07849 130.5 9.63344 130.5H120.867C123.422 130.5 125.872 129.485 127.678 127.678C129.485 125.872 130.5 123.422 130.5 120.867V9.63344C130.5 7.07849 129.485 4.62819 127.678 2.82157C125.872 1.01495 123.422 0 120.867 0ZM38.8962 111.17H19.2759V48.8469H38.8962V111.17ZM29.0725 40.2103C26.8469 40.1978 24.6749 39.5263 22.8306 38.2805C20.9863 37.0347 19.5524 35.2705 18.7098 33.2106C17.8672 31.1506 17.6536 28.8872 18.0962 26.706C18.5387 24.5249 19.6174 22.5236 21.1962 20.9549C22.775 19.3862 24.7831 18.3204 26.9671 17.8919C29.1511 17.4634 31.4131 17.6914 33.4676 18.5472C35.5221 19.4031 37.277 20.8483 38.5109 22.7005C39.7448 24.5528 40.4024 26.7291 40.4006 28.9547C40.4216 30.4447 40.1424 31.9238 39.5796 33.3036C39.0168 34.6835 38.182 35.9359 37.1249 36.9862C36.0678 38.0366 34.8101 38.8633 33.4266 39.4173C32.0432 39.9712 30.5624 40.2409 29.0725 40.2103ZM111.215 111.224H91.6038V77.1763C91.6038 67.135 87.3353 64.0356 81.8253 64.0356C76.0072 64.0356 70.2978 68.4219 70.2978 77.43V111.224H50.6775V48.8922H69.5456V57.5288H69.7994C71.6934 53.6953 78.3272 47.1431 88.45 47.1431C99.3975 47.1431 111.224 53.6409 111.224 72.6722L111.215 111.224Z" fill="var(--fill-0, black)"/>
</svg>
