<svg width="151" height="151" viewBox="0 0 151 151" fill="none" xmlns="http://www.w3.org/2000/svg">
<path d="M61.06 61.0601H18.46C10.6176 61.0601 4.26001 67.4176 4.26001 75.2601C4.26001 83.1025 10.6176 89.4601 18.46 89.4601H61.06" stroke="black" stroke-width="8.52" stroke-linecap="round"/>
<path d="M89.46 61.0601H132.06C139.902 61.0601 146.26 67.4176 146.26 75.2601C146.26 83.1025 139.902 89.4601 132.06 89.4601H89.46" stroke="black" stroke-width="8.52" stroke-linecap="round"/>
<path d="M89.46 61.0601L89.46 18.4601C89.46 10.6176 83.1025 4.26006 75.26 4.26006C67.4176 4.26006 61.06 10.6176 61.06 18.46L61.06 61.0601" stroke="black" stroke-width="8.52" stroke-linecap="round"/>
<path d="M61.06 89.46L61.06 132.06C61.06 139.902 67.4176 146.26 75.26 146.26C83.1025 146.26 89.46 139.902 89.46 132.06L89.46 89.46" stroke="black" stroke-width="8.52" stroke-linecap="round"/>
</svg>
