<svg preserveAspectRatio="none" width="100%" height="100%" overflow="visible" style="display: block;" viewBox="0 0 120.762 98.125" fill="none" xmlns="http://www.w3.org/2000/svg">
<path id="Vector" d="M37.9771 98.125C83.5476 98.125 108.473 60.3701 108.473 27.6293C108.473 26.5569 108.473 25.4894 108.4 24.4267C113.249 20.9193 117.435 16.5766 120.762 11.6018C116.24 13.6064 111.443 14.9205 106.531 15.5C111.703 12.4039 115.575 7.53366 117.424 1.79597C112.56 4.68221 107.239 6.71612 101.691 7.80989C97.9552 3.83773 93.0147 1.20746 87.6336 0.32612C82.2525 -0.555222 76.731 0.361494 71.9234 2.93441C67.1158 5.50733 63.2902 9.593 61.0386 14.5592C58.787 19.5254 58.2349 25.0952 59.4678 30.4068C49.6174 29.9127 39.9809 27.3527 31.1839 22.893C22.3869 18.4334 14.626 12.1737 8.405 4.52035C5.23666 9.97472 4.26626 16.4316 5.69139 22.5763C7.11651 28.721 10.83 34.0916 16.0758 37.5945C12.1327 37.479 8.27542 36.4152 4.83046 34.4934V34.8073C4.83203 40.5276 6.81221 46.0713 10.4352 50.4981C14.0581 54.9249 19.1008 57.9622 24.7078 59.0949C21.0602 60.0898 17.233 60.2353 13.5205 59.52C15.1043 64.4426 18.1868 68.7473 22.337 71.8323C26.4873 74.9172 31.4978 76.6282 36.668 76.7261C31.531 80.7639 25.6483 83.7493 19.3564 85.5115C13.0646 87.2736 6.48698 87.7779 0 86.9956C11.3306 94.2665 24.5142 98.1234 37.9771 98.1057" fill="var(--fill-0, black)"/>
</svg>
