<svg preserveAspectRatio="none" width="100%" height="100%" overflow="visible" style="display: block;" viewBox="0 0 1892 1788.96" fill="none" xmlns="http://www.w3.org/2000/svg">
<g id="Group 50">
<path id="Vector" d="M0 598.876C39.677 598.25 79.354 598.563 119.031 598.876C131.661 631.392 156.614 634.599 194.929 633.571C263.797 634.769 322.67 558.157 377.136 538.515C476.144 504.757 434.118 633.982 459.614 677.505C511.232 752.443 619.444 614.151 682.086 628.436C765.982 638.368 755.442 819.538 799.038 891.462C861.23 976.545 934.565 840.573 994.761 823.084C1055.22 811.864 1028.69 906.803 1040.46 972.936C1045.59 1014.97 1075.64 1032.44 1121.2 1015.62C1181.27 994.999 1257.7 906.473 1313.33 915.039C1397.23 924.97 1376.4 1130.04 1432.21 1197.3C1494.25 1251.47 1582.12 1139.47 1643.2 1116.15C1656.56 1111.91 1668.91 1110.38 1677.32 1122.8C1720 1150 1780 1140 1892 1155" stroke="var(--stroke-0, #FF5733)" stroke-width="30" stroke-miterlimit="10" stroke-linecap="round"/>
<path id="Vector_2" d="M0 188.713C99.336 188.476 199.671 188.594 298.007 188.713C313.555 209.984 341.06 220.32 367.785 211.851C423.527 195.774 489.773 106.505 535.59 95.9548C615.009 79.519 598.326 221.354 640.492 258.8C694.119 300.553 773.314 169.868 829.966 175.731C901.256 180.925 911.167 311.156 957.292 362.431C1021.26 435.839 1092.71 336.187 1145.17 349.73C1202.21 364.996 1192.12 475.369 1228.95 520.064C1283.22 577.488 1358.25 482.263 1426.83 449.413C1552.67 382.542 1541.74 554.309 1589.03 633.793C1646.64 717.154 1726.88 611.545 1795.12 624.849C1822.49 632.051 1836.01 658.73 1892 700" stroke="var(--stroke-0, #FF5733)" stroke-width="30" stroke-miterlimit="10" stroke-linecap="round"/>
<path id="Vector_3" d="M0 1151.13C23.963 1151.1 47.926 1151.12 71.8892 1151.13C145.105 1175.56 201.946 1104.36 265.947 1069.79C289.234 1060.02 315.959 1051.55 331.377 1069.69C359.661 1098.83 333.633 1178.53 363.193 1211.24C413.771 1261.1 499.996 1163.92 566.312 1157.98C658.467 1149.42 654.52 1299.13 688.711 1389.12C739.856 1507.07 810.922 1398.02 871.615 1365.29C964.373 1316.84 920.704 1460.88 943.282 1515.64C960.755 1556.15 1001.23 1552.85 1043.09 1528.47C1102.77 1498.44 1177.43 1421.59 1218.81 1440.23C1297.76 1466.82 1279.95 1636 1329.15 1706.94C1392.98 1777.22 1489.11 1646.72 1549.83 1641.77C1562.17 1640.24 1571.34 1643.69 1892 1700" stroke="var(--stroke-0, #FF5733)" stroke-width="30" stroke-miterlimit="10" stroke-linecap="round"/>
<path id="Vector_4" d="M0 857.994C5.001 857.994 10.003 857.994 15.0041 857.994C27.7637 893.644 45.6038 915.776 78.0589 909.461C135.337 903.217 212.89 787.343 265.843 785.645C333.565 786.412 319.93 920.137 359.934 959.855C406.425 992.755 472.281 894.084 527.633 868.603C612.003 835.515 630.043 944.117 664.73 1018.86C722.492 1133.14 789.494 1034.9 851.616 1036.64C919.338 1037.41 912.425 1142.81 940.733 1199.73C998.601 1289.36 1086.7 1155.85 1162.3 1128.72C1268.94 1088.57 1268.43 1239.57 1311.14 1317.33C1365.57 1405.67 1442.62 1305.04 1508.44 1314.35C1540.14 1317 1555.95 1344.54 1892 1400" stroke="var(--stroke-0, #FF5733)" stroke-width="30" stroke-miterlimit="10" stroke-linecap="round"/>
<path id="Vector_5" d="M0 288.221C58.968 288.007 117.937 288.114 176.905 288.221C203.654 307.53 197.474 376.174 232.244 398.498C302.802 440.443 370.194 351.605 436.64 348.807C503.086 346.009 500.628 449.993 529.561 494.808C555.943 532.493 599.186 487.033 635.185 457.365C702.601 396.307 760.635 381.091 799.883 429.782C844.731 477.492 836.153 569.919 869.671 616.457C906.627 664.286 941.847 615.812 1007.64 597.342C1107.04 572.987 1099.37 687.355 1152.37 741.215C1186.52 775.645 1222.02 761.218 1262.6 733.273C1308.53 698.078 1369.72 650.107 1407.41 661.186C1484.95 681.07 1463.83 852.096 1500.55 921.435C1517.38 946.271 1544.49 947.205 1576.3 925.217C1614.72 899.545 1659.86 845.544 1703.65 840.4C1733.94 836.357 1759.41 852.102 1892 900" stroke="var(--stroke-0, #FF5733)" stroke-width="30" stroke-miterlimit="10" stroke-linecap="round"/>
</g>
</svg>
