<svg preserveAspectRatio="none" width="100%" height="100%" overflow="visible" style="display: block;" viewBox="0 0 1872.26 124.583" fill="none" xmlns="http://www.w3.org/2000/svg">
<path d="M1854.63 56.7649C1844.56 54.7818 1833.05 54.7818 1820.1 56.7649C1755.35 65.6888 1703.56 119.232 1604.28 104.359C1520.83 87.5027 1470.47 30.9849 1372.64 31.9764C1319.4 30.9849 1269.04 64.6972 1215.81 81.5534C1179.84 94.4434 1136.68 100.393 1100.71 89.4857C1053.23 74.6126 1041.72 23.0526 959.705 49.8242C906.47 67.6719 873.378 111.3 768.346 79.5703C693.529 54.7819 635.978 6.19642 538.14 20.078C467.64 29.9934 412.966 71.638 336.71 61.7226C290.669 54.7818 286.352 26.0272 243.189 20.078C218.729 16.1118 192.831 22.061 171.249 28.0103C120.908 44.9119 89.0952 70.5923 17.6305 76.412" stroke="#000000" stroke-width="35.2591" stroke-miterlimit="10" stroke-linecap="round"/>
</svg>
